<svg id="Layer_1" data-name="Layer 1" xmlns="http://www.w3.org/2000/svg" viewBox="0 0 108.33 44.53"><defs><style>.cls-1{fill:none;stroke:#000;stroke-miterlimit:10;}</style></defs><path class="cls-1" d="M749.77,397.52a2.26,2.26,0,0,0,2.23,2l101.36.52a2.93,2.93,0,0,0,2.89-2.4l.44-2.4a5.49,5.49,0,0,0-.13-2.58h0L855.8,390a9.36,9.36,0,0,0-1.15-2.46l-2-3a12.19,12.19,0,0,0-2.29-2.57l-2-1.71a12.42,12.42,0,0,0-2.49-1.63L842.45,377a10.46,10.46,0,0,0-2.58-.87L834.21,375l-1.08-3a3.53,3.53,0,0,0-.69-1.15l-1.63-1.81a16.78,16.78,0,0,0-5-3.81l-1.89-1a6.09,6.09,0,0,0-1.72-.56l-5.54-.92-4.2-3a3.92,3.92,0,0,0-1-.48l-2.58-.88a32.14,32.14,0,0,0-6-1.42l-3.19-.43a17.09,17.09,0,0,0-2.14-.14H793.1a17.63,17.63,0,0,0-3.17.28l-3.66.65a8.54,8.54,0,0,0-2.42.82l-1.81.95a12.09,12.09,0,0,0-4.24,3.7l-1.26,1.77a15.29,15.29,0,0,0-2.37,5l-1.36,5.05-.31.77-3.22.26a6.35,6.35,0,0,0-1.06.18l-1.72.45a17.54,17.54,0,0,0-4.46,1.83L759,380a14.3,14.3,0,0,0-3.39,2.76L754,384.55a15.65,15.65,0,0,0-2.4,3.52l-1,2c-.2.41-.38.83-.55,1.25a8.35,8.35,0,0,0-.49,3.93Z" transform="translate(-748.96 -356)"/></svg>